<mxfile host="app.diagrams.net" modified="2023-10-10T15:56:37.990Z" agent="Mozilla/5.0 (Macintosh; Intel Mac OS X 10_15_7) AppleWebKit/537.36 (KHTML, like Gecko) Chrome/117.0.0.0 Safari/537.36" version="22.0.4" etag="1HEgnVpaNyMn0y86aGZF" type="github">
  <diagram name="페이지-1" id="FXCM_gGPYaRTxESqEGK7">
    <mxGraphModel>
      <root>
        <mxCell id="0" />
        <mxCell id="1" parent="0" />
      </root>
    </mxGraphModel>
  </diagram>
</mxfile>
